<svg width="200" height="48" viewBox="0 0 200 48" xmlns="http://www.w3.org/2000/svg">
  <!-- Průmyslové budovy -->
  <!-- Tmavě modrá budova vlevo -->
  <rect x="0" y="20" width="16" height="20" fill="#1e3a8a"/>
  <rect x="2" y="24" width="3" height="3" fill="white"/>
  <rect x="6" y="24" width="3" height="3" fill="white"/>
  <rect x="10" y="24" width="3" height="3" fill="white"/>
  <rect x="14" y="24" width="3" height="3" fill="white"/>
  <rect x="2" y="30" width="3" height="3" fill="white"/>
  <rect x="6" y="30" width="3" height="3" fill="white"/>
  <rect x="10" y="30" width="3" height="3" fill="white"/>
  <rect x="14" y="30" width="3" height="3" fill="white"/>
  <rect x="0" y="12" width="2" height="8" fill="#1e3a8a"/>
  
  <!-- Tmavě šedá budova uprostřed -->
  <rect x="12" y="16" width="14" height="24" fill="#4b5563"/>
  <rect x="16" y="12" width="2" height="4" fill="#4b5563"/>
  
  <!-- Červeno-hnědá budova vpravo -->
  <rect x="24" y="22" width="12" height="18" fill="#92400e"/>
  <rect x="26" y="26" width="8" height="4" fill="white"/>
  <rect x="26" y="32" width="3" height="3" fill="white"/>
  <rect x="31" y="32" width="3" height="3" fill="white"/>
  
  <!-- Ozubená kola -->
  <!-- Větší ozubené kolo -->
  <circle cx="30" cy="18" r="6" fill="#92400e"/>
  <circle cx="30" cy="18" r="2" fill="white"/>
  <path d="M 30 12 L 30 10 M 36 18 L 38 18 M 30 24 L 30 26 M 24 18 L 22 18" stroke="white" stroke-width="1"/>
  
  <!-- Menší ozubené kolo -->
  <circle cx="18" cy="14" r="4" fill="#4b5563"/>
  <circle cx="18" cy="14" r="1.5" fill="white"/>
  
  <!-- Text AREÁL -->
  <text x="42" y="20" font-family="Arial, sans-serif" font-size="14" font-weight="bold" fill="#1e3a8a">AREÁL</text>
  
  <!-- Text ZASTÁVKA -->
  <text x="42" y="35" font-family="Arial, sans-serif" font-size="14" font-weight="bold" fill="#4b5563">ZASTÁVKA</text>
</svg>

